<?xml version="1.0" encoding="UTF-8" standalone="no"?>
<!DOCTYPE svg PUBLIC "-//W3C//DTD SVG 1.1//EN"
 "http://www.w3.org/Graphics/SVG/1.1/DTD/svg11.dtd">
<!-- Generated by graphviz version 2.38.0 (20140413.2041)
 -->
<!-- Title: Tree Pages: 1 -->
<svg width="519pt" height="552pt"
 viewBox="0.00 0.00 519.00 552.00" xmlns="http://www.w3.org/2000/svg" xmlns:xlink="http://www.w3.org/1999/xlink">
<g id="graph0" class="graph" transform="scale(1 1) rotate(0) translate(4 548)">
<title>Tree</title>
<polygon fill="white" stroke="none" points="-4,4 -4,-548 515,-548 515,4 -4,4"/>
<!-- 0 -->
<g id="node1" class="node"><title>0</title>
<polygon fill="#a7d3f3" stroke="black" points="404.5,-544 243.5,-544 243.5,-461 404.5,-461 404.5,-544"/>
<text text-anchor="middle" x="324" y="-528.8" font-family="Times New Roman,serif" font-size="14.00">Outlook_Overcast &lt;= 0.5</text>
<text text-anchor="middle" x="324" y="-513.8" font-family="Times New Roman,serif" font-size="14.00">entropy = 0.94</text>
<text text-anchor="middle" x="324" y="-498.8" font-family="Times New Roman,serif" font-size="14.00">samples = 14</text>
<text text-anchor="middle" x="324" y="-483.8" font-family="Times New Roman,serif" font-size="14.00">value = [5, 9]</text>
<text text-anchor="middle" x="324" y="-468.8" font-family="Times New Roman,serif" font-size="14.00">class = Yes</text>
</g>
<!-- 1 -->
<g id="node2" class="node"><title>1</title>
<polygon fill="#ffffff" stroke="black" points="327.5,-425 184.5,-425 184.5,-342 327.5,-342 327.5,-425"/>
<text text-anchor="middle" x="256" y="-409.8" font-family="Times New Roman,serif" font-size="14.00">Humidity_High &lt;= 0.5</text>
<text text-anchor="middle" x="256" y="-394.8" font-family="Times New Roman,serif" font-size="14.00">entropy = 1.0</text>
<text text-anchor="middle" x="256" y="-379.8" font-family="Times New Roman,serif" font-size="14.00">samples = 10</text>
<text text-anchor="middle" x="256" y="-364.8" font-family="Times New Roman,serif" font-size="14.00">value = [5, 5]</text>
<text text-anchor="middle" x="256" y="-349.8" font-family="Times New Roman,serif" font-size="14.00">class = No</text>
</g>
<!-- 0&#45;&gt;1 -->
<g id="edge1" class="edge"><title>0&#45;&gt;1</title>
<path fill="none" stroke="black" d="M300.408,-460.907C295.344,-452.195 289.94,-442.897 284.707,-433.893"/>
<polygon fill="black" stroke="black" points="287.602,-431.908 279.551,-425.021 281.549,-435.425 287.602,-431.908"/>
<text text-anchor="middle" x="273.15" y="-445.487" font-family="Times New Roman,serif" font-size="14.00">True</text>
</g>
<!-- 12 -->
<g id="node13" class="node"><title>12</title>
<polygon fill="#399de5" stroke="black" points="438,-417.5 346,-417.5 346,-349.5 438,-349.5 438,-417.5"/>
<text text-anchor="middle" x="392" y="-402.3" font-family="Times New Roman,serif" font-size="14.00">entropy = 0.0</text>
<text text-anchor="middle" x="392" y="-387.3" font-family="Times New Roman,serif" font-size="14.00">samples = 4</text>
<text text-anchor="middle" x="392" y="-372.3" font-family="Times New Roman,serif" font-size="14.00">value = [0, 4]</text>
<text text-anchor="middle" x="392" y="-357.3" font-family="Times New Roman,serif" font-size="14.00">class = Yes</text>
</g>
<!-- 0&#45;&gt;12 -->
<g id="edge12" class="edge"><title>0&#45;&gt;12</title>
<path fill="none" stroke="black" d="M347.592,-460.907C354.07,-449.763 361.105,-437.658 367.625,-426.439"/>
<polygon fill="black" stroke="black" points="370.725,-428.072 372.723,-417.667 364.672,-424.554 370.725,-428.072"/>
<text text-anchor="middle" x="379.124" y="-438.134" font-family="Times New Roman,serif" font-size="14.00">False</text>
</g>
<!-- 2 -->
<g id="node3" class="node"><title>2</title>
<polygon fill="#6ab6ec" stroke="black" points="244,-306 110,-306 110,-223 244,-223 244,-306"/>
<text text-anchor="middle" x="177" y="-290.8" font-family="Times New Roman,serif" font-size="14.00">Wind_Strong &lt;= 0.5</text>
<text text-anchor="middle" x="177" y="-275.8" font-family="Times New Roman,serif" font-size="14.00">entropy = 0.722</text>
<text text-anchor="middle" x="177" y="-260.8" font-family="Times New Roman,serif" font-size="14.00">samples = 5</text>
<text text-anchor="middle" x="177" y="-245.8" font-family="Times New Roman,serif" font-size="14.00">value = [1, 4]</text>
<text text-anchor="middle" x="177" y="-230.8" font-family="Times New Roman,serif" font-size="14.00">class = Yes</text>
</g>
<!-- 1&#45;&gt;2 -->
<g id="edge2" class="edge"><title>1&#45;&gt;2</title>
<path fill="none" stroke="black" d="M228.591,-341.907C222.586,-333.014 216.169,-323.509 209.971,-314.331"/>
<polygon fill="black" stroke="black" points="212.857,-312.35 204.36,-306.021 207.056,-316.267 212.857,-312.35"/>
</g>
<!-- 7 -->
<g id="node8" class="node"><title>7</title>
<polygon fill="#eca06a" stroke="black" points="408,-306 262,-306 262,-223 408,-223 408,-306"/>
<text text-anchor="middle" x="335" y="-290.8" font-family="Times New Roman,serif" font-size="14.00">Outlook_Sunny &lt;= 0.5</text>
<text text-anchor="middle" x="335" y="-275.8" font-family="Times New Roman,serif" font-size="14.00">entropy = 0.722</text>
<text text-anchor="middle" x="335" y="-260.8" font-family="Times New Roman,serif" font-size="14.00">samples = 5</text>
<text text-anchor="middle" x="335" y="-245.8" font-family="Times New Roman,serif" font-size="14.00">value = [4, 1]</text>
<text text-anchor="middle" x="335" y="-230.8" font-family="Times New Roman,serif" font-size="14.00">class = No</text>
</g>
<!-- 1&#45;&gt;7 -->
<g id="edge7" class="edge"><title>1&#45;&gt;7</title>
<path fill="none" stroke="black" d="M283.409,-341.907C289.414,-333.014 295.831,-323.509 302.029,-314.331"/>
<polygon fill="black" stroke="black" points="304.944,-316.267 307.64,-306.021 299.143,-312.35 304.944,-316.267"/>
</g>
<!-- 3 -->
<g id="node4" class="node"><title>3</title>
<polygon fill="#399de5" stroke="black" points="92,-179.5 0,-179.5 0,-111.5 92,-111.5 92,-179.5"/>
<text text-anchor="middle" x="46" y="-164.3" font-family="Times New Roman,serif" font-size="14.00">entropy = 0.0</text>
<text text-anchor="middle" x="46" y="-149.3" font-family="Times New Roman,serif" font-size="14.00">samples = 3</text>
<text text-anchor="middle" x="46" y="-134.3" font-family="Times New Roman,serif" font-size="14.00">value = [0, 3]</text>
<text text-anchor="middle" x="46" y="-119.3" font-family="Times New Roman,serif" font-size="14.00">class = Yes</text>
</g>
<!-- 2&#45;&gt;3 -->
<g id="edge3" class="edge"><title>2&#45;&gt;3</title>
<path fill="none" stroke="black" d="M131.55,-222.907C118.33,-211.101 103.905,-198.217 90.7298,-186.45"/>
<polygon fill="black" stroke="black" points="92.9255,-183.718 83.1356,-179.667 88.2626,-188.939 92.9255,-183.718"/>
</g>
<!-- 4 -->
<g id="node5" class="node"><title>4</title>
<polygon fill="#ffffff" stroke="black" points="247.5,-187 110.5,-187 110.5,-104 247.5,-104 247.5,-187"/>
<text text-anchor="middle" x="179" y="-171.8" font-family="Times New Roman,serif" font-size="14.00">Outlook_Rain &lt;= 0.5</text>
<text text-anchor="middle" x="179" y="-156.8" font-family="Times New Roman,serif" font-size="14.00">entropy = 1.0</text>
<text text-anchor="middle" x="179" y="-141.8" font-family="Times New Roman,serif" font-size="14.00">samples = 2</text>
<text text-anchor="middle" x="179" y="-126.8" font-family="Times New Roman,serif" font-size="14.00">value = [1, 1]</text>
<text text-anchor="middle" x="179" y="-111.8" font-family="Times New Roman,serif" font-size="14.00">class = No</text>
</g>
<!-- 2&#45;&gt;4 -->
<g id="edge4" class="edge"><title>2&#45;&gt;4</title>
<path fill="none" stroke="black" d="M177.694,-222.907C177.837,-214.558 177.989,-205.671 178.136,-197.02"/>
<polygon fill="black" stroke="black" points="181.636,-197.079 178.307,-187.021 174.637,-196.959 181.636,-197.079"/>
</g>
<!-- 5 -->
<g id="node6" class="node"><title>5</title>
<polygon fill="#399de5" stroke="black" points="126,-68 34,-68 34,-0 126,-0 126,-68"/>
<text text-anchor="middle" x="80" y="-52.8" font-family="Times New Roman,serif" font-size="14.00">entropy = 0.0</text>
<text text-anchor="middle" x="80" y="-37.8" font-family="Times New Roman,serif" font-size="14.00">samples = 1</text>
<text text-anchor="middle" x="80" y="-22.8" font-family="Times New Roman,serif" font-size="14.00">value = [0, 1]</text>
<text text-anchor="middle" x="80" y="-7.8" font-family="Times New Roman,serif" font-size="14.00">class = Yes</text>
</g>
<!-- 4&#45;&gt;5 -->
<g id="edge5" class="edge"><title>4&#45;&gt;5</title>
<path fill="none" stroke="black" d="M142.136,-103.726C133.89,-94.6054 125.142,-84.93 116.895,-75.8078"/>
<polygon fill="black" stroke="black" points="119.409,-73.3701 110.106,-68.2996 114.217,-78.0647 119.409,-73.3701"/>
</g>
<!-- 6 -->
<g id="node7" class="node"><title>6</title>
<polygon fill="#e58139" stroke="black" points="236,-68 144,-68 144,-0 236,-0 236,-68"/>
<text text-anchor="middle" x="190" y="-52.8" font-family="Times New Roman,serif" font-size="14.00">entropy = 0.0</text>
<text text-anchor="middle" x="190" y="-37.8" font-family="Times New Roman,serif" font-size="14.00">samples = 1</text>
<text text-anchor="middle" x="190" y="-22.8" font-family="Times New Roman,serif" font-size="14.00">value = [1, 0]</text>
<text text-anchor="middle" x="190" y="-7.8" font-family="Times New Roman,serif" font-size="14.00">class = No</text>
</g>
<!-- 4&#45;&gt;6 -->
<g id="edge6" class="edge"><title>4&#45;&gt;6</title>
<path fill="none" stroke="black" d="M183.096,-103.726C183.93,-95.4263 184.81,-86.6671 185.652,-78.2834"/>
<polygon fill="black" stroke="black" points="189.138,-78.5994 186.655,-68.2996 182.173,-77.8997 189.138,-78.5994"/>
</g>
<!-- 8 -->
<g id="node9" class="node"><title>8</title>
<polygon fill="#ffffff" stroke="black" points="401,-187 267,-187 267,-104 401,-104 401,-187"/>
<text text-anchor="middle" x="334" y="-171.8" font-family="Times New Roman,serif" font-size="14.00">Wind_Strong &lt;= 0.5</text>
<text text-anchor="middle" x="334" y="-156.8" font-family="Times New Roman,serif" font-size="14.00">entropy = 1.0</text>
<text text-anchor="middle" x="334" y="-141.8" font-family="Times New Roman,serif" font-size="14.00">samples = 2</text>
<text text-anchor="middle" x="334" y="-126.8" font-family="Times New Roman,serif" font-size="14.00">value = [1, 1]</text>
<text text-anchor="middle" x="334" y="-111.8" font-family="Times New Roman,serif" font-size="14.00">class = No</text>
</g>
<!-- 7&#45;&gt;8 -->
<g id="edge8" class="edge"><title>7&#45;&gt;8</title>
<path fill="none" stroke="black" d="M334.653,-222.907C334.582,-214.649 334.507,-205.864 334.434,-197.302"/>
<polygon fill="black" stroke="black" points="337.932,-196.99 334.346,-187.021 330.932,-197.05 337.932,-196.99"/>
</g>
<!-- 11 -->
<g id="node12" class="node"><title>11</title>
<polygon fill="#e58139" stroke="black" points="511,-179.5 419,-179.5 419,-111.5 511,-111.5 511,-179.5"/>
<text text-anchor="middle" x="465" y="-164.3" font-family="Times New Roman,serif" font-size="14.00">entropy = 0.0</text>
<text text-anchor="middle" x="465" y="-149.3" font-family="Times New Roman,serif" font-size="14.00">samples = 3</text>
<text text-anchor="middle" x="465" y="-134.3" font-family="Times New Roman,serif" font-size="14.00">value = [3, 0]</text>
<text text-anchor="middle" x="465" y="-119.3" font-family="Times New Roman,serif" font-size="14.00">class = No</text>
</g>
<!-- 7&#45;&gt;11 -->
<g id="edge11" class="edge"><title>7&#45;&gt;11</title>
<path fill="none" stroke="black" d="M380.103,-222.907C393.222,-211.101 407.537,-198.217 420.612,-186.45"/>
<polygon fill="black" stroke="black" points="423.056,-188.958 428.148,-179.667 418.373,-183.755 423.056,-188.958"/>
</g>
<!-- 9 -->
<g id="node10" class="node"><title>9</title>
<polygon fill="#399de5" stroke="black" points="368,-68 276,-68 276,-0 368,-0 368,-68"/>
<text text-anchor="middle" x="322" y="-52.8" font-family="Times New Roman,serif" font-size="14.00">entropy = 0.0</text>
<text text-anchor="middle" x="322" y="-37.8" font-family="Times New Roman,serif" font-size="14.00">samples = 1</text>
<text text-anchor="middle" x="322" y="-22.8" font-family="Times New Roman,serif" font-size="14.00">value = [0, 1]</text>
<text text-anchor="middle" x="322" y="-7.8" font-family="Times New Roman,serif" font-size="14.00">class = Yes</text>
</g>
<!-- 8&#45;&gt;9 -->
<g id="edge9" class="edge"><title>8&#45;&gt;9</title>
<path fill="none" stroke="black" d="M329.532,-103.726C328.622,-95.4263 327.662,-86.6671 326.743,-78.2834"/>
<polygon fill="black" stroke="black" points="330.218,-77.8588 325.649,-68.2996 323.26,-78.6214 330.218,-77.8588"/>
</g>
<!-- 10 -->
<g id="node11" class="node"><title>10</title>
<polygon fill="#e58139" stroke="black" points="478,-68 386,-68 386,-0 478,-0 478,-68"/>
<text text-anchor="middle" x="432" y="-52.8" font-family="Times New Roman,serif" font-size="14.00">entropy = 0.0</text>
<text text-anchor="middle" x="432" y="-37.8" font-family="Times New Roman,serif" font-size="14.00">samples = 1</text>
<text text-anchor="middle" x="432" y="-22.8" font-family="Times New Roman,serif" font-size="14.00">value = [1, 0]</text>
<text text-anchor="middle" x="432" y="-7.8" font-family="Times New Roman,serif" font-size="14.00">class = No</text>
</g>
<!-- 8&#45;&gt;10 -->
<g id="edge10" class="edge"><title>8&#45;&gt;10</title>
<path fill="none" stroke="black" d="M370.492,-103.726C378.655,-94.6054 387.314,-84.93 395.478,-75.8078"/>
<polygon fill="black" stroke="black" points="398.137,-78.0853 402.198,-68.2996 392.921,-73.417 398.137,-78.0853"/>
</g>
</g>
</svg>
