<?xml version="1.0" encoding="UTF-8" standalone="no"?>
<!DOCTYPE svg PUBLIC "-//W3C//DTD SVG 1.1//EN"
 "http://www.w3.org/Graphics/SVG/1.1/DTD/svg11.dtd">
<!-- Generated by graphviz version 2.38.0 (20140413.2041)
 -->
<!-- Title: Tree Pages: 1 -->
<svg width="608pt" height="552pt"
 viewBox="0.00 0.00 608.00 552.00" xmlns="http://www.w3.org/2000/svg" xmlns:xlink="http://www.w3.org/1999/xlink">
<g id="graph0" class="graph" transform="scale(1 1) rotate(0) translate(4 548)">
<title>Tree</title>
<polygon fill="white" stroke="none" points="-4,4 -4,-548 604,-548 604,4 -4,4"/>
<!-- 0 -->
<g id="node1" class="node"><title>0</title>
<polygon fill="#a7d3f3" stroke="black" points="448,-544 287,-544 287,-461 448,-461 448,-544"/>
<text text-anchor="middle" x="367.5" y="-528.8" font-family="Times New Roman,serif" font-size="14.00">Outlook_Overcast &lt;= 0.5</text>
<text text-anchor="middle" x="367.5" y="-513.8" font-family="Times New Roman,serif" font-size="14.00">gini = 0.459</text>
<text text-anchor="middle" x="367.5" y="-498.8" font-family="Times New Roman,serif" font-size="14.00">samples = 14</text>
<text text-anchor="middle" x="367.5" y="-483.8" font-family="Times New Roman,serif" font-size="14.00">value = [5, 9]</text>
<text text-anchor="middle" x="367.5" y="-468.8" font-family="Times New Roman,serif" font-size="14.00">class = Yes</text>
</g>
<!-- 1 -->
<g id="node2" class="node"><title>1</title>
<polygon fill="#ffffff" stroke="black" points="375.5,-425 217.5,-425 217.5,-342 375.5,-342 375.5,-425"/>
<text text-anchor="middle" x="296.5" y="-409.8" font-family="Times New Roman,serif" font-size="14.00">Humidity_Normal &lt;= 0.5</text>
<text text-anchor="middle" x="296.5" y="-394.8" font-family="Times New Roman,serif" font-size="14.00">gini = 0.5</text>
<text text-anchor="middle" x="296.5" y="-379.8" font-family="Times New Roman,serif" font-size="14.00">samples = 10</text>
<text text-anchor="middle" x="296.5" y="-364.8" font-family="Times New Roman,serif" font-size="14.00">value = [5, 5]</text>
<text text-anchor="middle" x="296.5" y="-349.8" font-family="Times New Roman,serif" font-size="14.00">class = No</text>
</g>
<!-- 0&#45;&gt;1 -->
<g id="edge1" class="edge"><title>0&#45;&gt;1</title>
<path fill="none" stroke="black" d="M342.867,-460.907C337.525,-452.105 331.82,-442.703 326.303,-433.612"/>
<polygon fill="black" stroke="black" points="329.27,-431.754 321.09,-425.021 323.285,-435.386 329.27,-431.754"/>
<text text-anchor="middle" x="315.148" y="-445.604" font-family="Times New Roman,serif" font-size="14.00">True</text>
</g>
<!-- 12 -->
<g id="node13" class="node"><title>12</title>
<polygon fill="#399de5" stroke="black" points="485,-417.5 394,-417.5 394,-349.5 485,-349.5 485,-417.5"/>
<text text-anchor="middle" x="439.5" y="-402.3" font-family="Times New Roman,serif" font-size="14.00">gini = 0.0</text>
<text text-anchor="middle" x="439.5" y="-387.3" font-family="Times New Roman,serif" font-size="14.00">samples = 4</text>
<text text-anchor="middle" x="439.5" y="-372.3" font-family="Times New Roman,serif" font-size="14.00">value = [0, 4]</text>
<text text-anchor="middle" x="439.5" y="-357.3" font-family="Times New Roman,serif" font-size="14.00">class = Yes</text>
</g>
<!-- 0&#45;&gt;12 -->
<g id="edge12" class="edge"><title>0&#45;&gt;12</title>
<path fill="none" stroke="black" d="M392.48,-460.907C399.338,-449.763 406.787,-437.658 413.691,-426.439"/>
<polygon fill="black" stroke="black" points="416.829,-428.018 419.09,-417.667 410.868,-424.349 416.829,-428.018"/>
<text text-anchor="middle" x="424.88" y="-438.287" font-family="Times New Roman,serif" font-size="14.00">False</text>
</g>
<!-- 2 -->
<g id="node3" class="node"><title>2</title>
<polygon fill="#eca06a" stroke="black" points="290.5,-306 144.5,-306 144.5,-223 290.5,-223 290.5,-306"/>
<text text-anchor="middle" x="217.5" y="-290.8" font-family="Times New Roman,serif" font-size="14.00">Outlook_Sunny &lt;= 0.5</text>
<text text-anchor="middle" x="217.5" y="-275.8" font-family="Times New Roman,serif" font-size="14.00">gini = 0.32</text>
<text text-anchor="middle" x="217.5" y="-260.8" font-family="Times New Roman,serif" font-size="14.00">samples = 5</text>
<text text-anchor="middle" x="217.5" y="-245.8" font-family="Times New Roman,serif" font-size="14.00">value = [4, 1]</text>
<text text-anchor="middle" x="217.5" y="-230.8" font-family="Times New Roman,serif" font-size="14.00">class = No</text>
</g>
<!-- 1&#45;&gt;2 -->
<g id="edge2" class="edge"><title>1&#45;&gt;2</title>
<path fill="none" stroke="black" d="M269.091,-341.907C263.086,-333.014 256.669,-323.509 250.471,-314.331"/>
<polygon fill="black" stroke="black" points="253.357,-312.35 244.86,-306.021 247.556,-316.267 253.357,-312.35"/>
</g>
<!-- 7 -->
<g id="node8" class="node"><title>7</title>
<polygon fill="#6ab6ec" stroke="black" points="442.5,-306 308.5,-306 308.5,-223 442.5,-223 442.5,-306"/>
<text text-anchor="middle" x="375.5" y="-290.8" font-family="Times New Roman,serif" font-size="14.00">Wind_Strong &lt;= 0.5</text>
<text text-anchor="middle" x="375.5" y="-275.8" font-family="Times New Roman,serif" font-size="14.00">gini = 0.32</text>
<text text-anchor="middle" x="375.5" y="-260.8" font-family="Times New Roman,serif" font-size="14.00">samples = 5</text>
<text text-anchor="middle" x="375.5" y="-245.8" font-family="Times New Roman,serif" font-size="14.00">value = [1, 4]</text>
<text text-anchor="middle" x="375.5" y="-230.8" font-family="Times New Roman,serif" font-size="14.00">class = Yes</text>
</g>
<!-- 1&#45;&gt;7 -->
<g id="edge7" class="edge"><title>1&#45;&gt;7</title>
<path fill="none" stroke="black" d="M323.909,-341.907C329.914,-333.014 336.331,-323.509 342.529,-314.331"/>
<polygon fill="black" stroke="black" points="345.444,-316.267 348.14,-306.021 339.643,-312.35 345.444,-316.267"/>
</g>
<!-- 3 -->
<g id="node4" class="node"><title>3</title>
<polygon fill="#ffffff" stroke="black" points="166.5,-187 32.5,-187 32.5,-104 166.5,-104 166.5,-187"/>
<text text-anchor="middle" x="99.5" y="-171.8" font-family="Times New Roman,serif" font-size="14.00">Wind_Strong &lt;= 0.5</text>
<text text-anchor="middle" x="99.5" y="-156.8" font-family="Times New Roman,serif" font-size="14.00">gini = 0.5</text>
<text text-anchor="middle" x="99.5" y="-141.8" font-family="Times New Roman,serif" font-size="14.00">samples = 2</text>
<text text-anchor="middle" x="99.5" y="-126.8" font-family="Times New Roman,serif" font-size="14.00">value = [1, 1]</text>
<text text-anchor="middle" x="99.5" y="-111.8" font-family="Times New Roman,serif" font-size="14.00">class = No</text>
</g>
<!-- 2&#45;&gt;3 -->
<g id="edge3" class="edge"><title>2&#45;&gt;3</title>
<path fill="none" stroke="black" d="M176.56,-222.907C167.225,-213.651 157.221,-203.732 147.617,-194.209"/>
<polygon fill="black" stroke="black" points="149.933,-191.576 140.367,-187.021 145.004,-196.547 149.933,-191.576"/>
</g>
<!-- 6 -->
<g id="node7" class="node"><title>6</title>
<polygon fill="#e58139" stroke="black" points="276,-179.5 185,-179.5 185,-111.5 276,-111.5 276,-179.5"/>
<text text-anchor="middle" x="230.5" y="-164.3" font-family="Times New Roman,serif" font-size="14.00">gini = 0.0</text>
<text text-anchor="middle" x="230.5" y="-149.3" font-family="Times New Roman,serif" font-size="14.00">samples = 3</text>
<text text-anchor="middle" x="230.5" y="-134.3" font-family="Times New Roman,serif" font-size="14.00">value = [3, 0]</text>
<text text-anchor="middle" x="230.5" y="-119.3" font-family="Times New Roman,serif" font-size="14.00">class = No</text>
</g>
<!-- 2&#45;&gt;6 -->
<g id="edge6" class="edge"><title>2&#45;&gt;6</title>
<path fill="none" stroke="black" d="M222.01,-222.907C223.2,-212.204 224.487,-200.615 225.692,-189.776"/>
<polygon fill="black" stroke="black" points="229.189,-189.992 226.815,-179.667 222.232,-189.219 229.189,-189.992"/>
</g>
<!-- 4 -->
<g id="node5" class="node"><title>4</title>
<polygon fill="#399de5" stroke="black" points="91,-68 0,-68 0,-0 91,-0 91,-68"/>
<text text-anchor="middle" x="45.5" y="-52.8" font-family="Times New Roman,serif" font-size="14.00">gini = 0.0</text>
<text text-anchor="middle" x="45.5" y="-37.8" font-family="Times New Roman,serif" font-size="14.00">samples = 1</text>
<text text-anchor="middle" x="45.5" y="-22.8" font-family="Times New Roman,serif" font-size="14.00">value = [0, 1]</text>
<text text-anchor="middle" x="45.5" y="-7.8" font-family="Times New Roman,serif" font-size="14.00">class = Yes</text>
</g>
<!-- 3&#45;&gt;4 -->
<g id="edge4" class="edge"><title>3&#45;&gt;4</title>
<path fill="none" stroke="black" d="M79.3924,-103.726C75.1643,-95.1527 70.6946,-86.0891 66.437,-77.4555"/>
<polygon fill="black" stroke="black" points="69.4838,-75.7203 61.9217,-68.2996 63.2056,-78.8164 69.4838,-75.7203"/>
</g>
<!-- 5 -->
<g id="node6" class="node"><title>5</title>
<polygon fill="#e58139" stroke="black" points="200,-68 109,-68 109,-0 200,-0 200,-68"/>
<text text-anchor="middle" x="154.5" y="-52.8" font-family="Times New Roman,serif" font-size="14.00">gini = 0.0</text>
<text text-anchor="middle" x="154.5" y="-37.8" font-family="Times New Roman,serif" font-size="14.00">samples = 1</text>
<text text-anchor="middle" x="154.5" y="-22.8" font-family="Times New Roman,serif" font-size="14.00">value = [1, 0]</text>
<text text-anchor="middle" x="154.5" y="-7.8" font-family="Times New Roman,serif" font-size="14.00">class = No</text>
</g>
<!-- 3&#45;&gt;5 -->
<g id="edge5" class="edge"><title>3&#45;&gt;5</title>
<path fill="none" stroke="black" d="M119.98,-103.726C124.286,-95.1527 128.839,-86.0891 133.175,-77.4555"/>
<polygon fill="black" stroke="black" points="136.413,-78.8067 137.774,-68.2996 130.158,-75.6647 136.413,-78.8067"/>
</g>
<!-- 8 -->
<g id="node9" class="node"><title>8</title>
<polygon fill="#399de5" stroke="black" points="409,-179.5 318,-179.5 318,-111.5 409,-111.5 409,-179.5"/>
<text text-anchor="middle" x="363.5" y="-164.3" font-family="Times New Roman,serif" font-size="14.00">gini = 0.0</text>
<text text-anchor="middle" x="363.5" y="-149.3" font-family="Times New Roman,serif" font-size="14.00">samples = 3</text>
<text text-anchor="middle" x="363.5" y="-134.3" font-family="Times New Roman,serif" font-size="14.00">value = [0, 3]</text>
<text text-anchor="middle" x="363.5" y="-119.3" font-family="Times New Roman,serif" font-size="14.00">class = Yes</text>
</g>
<!-- 7&#45;&gt;8 -->
<g id="edge8" class="edge"><title>7&#45;&gt;8</title>
<path fill="none" stroke="black" d="M371.337,-222.907C370.239,-212.204 369.05,-200.615 367.939,-189.776"/>
<polygon fill="black" stroke="black" points="371.404,-189.258 366.902,-179.667 364.44,-189.972 371.404,-189.258"/>
</g>
<!-- 9 -->
<g id="node10" class="node"><title>9</title>
<polygon fill="#ffffff" stroke="black" points="573.5,-187 427.5,-187 427.5,-104 573.5,-104 573.5,-187"/>
<text text-anchor="middle" x="500.5" y="-171.8" font-family="Times New Roman,serif" font-size="14.00">Outlook_Sunny &lt;= 0.5</text>
<text text-anchor="middle" x="500.5" y="-156.8" font-family="Times New Roman,serif" font-size="14.00">gini = 0.5</text>
<text text-anchor="middle" x="500.5" y="-141.8" font-family="Times New Roman,serif" font-size="14.00">samples = 2</text>
<text text-anchor="middle" x="500.5" y="-126.8" font-family="Times New Roman,serif" font-size="14.00">value = [1, 1]</text>
<text text-anchor="middle" x="500.5" y="-111.8" font-family="Times New Roman,serif" font-size="14.00">class = No</text>
</g>
<!-- 7&#45;&gt;9 -->
<g id="edge9" class="edge"><title>7&#45;&gt;9</title>
<path fill="none" stroke="black" d="M418.868,-222.907C428.855,-213.56 439.562,-203.538 449.828,-193.929"/>
<polygon fill="black" stroke="black" points="452.299,-196.41 457.209,-187.021 447.516,-191.299 452.299,-196.41"/>
</g>
<!-- 10 -->
<g id="node11" class="node"><title>10</title>
<polygon fill="#e58139" stroke="black" points="491,-68 400,-68 400,-0 491,-0 491,-68"/>
<text text-anchor="middle" x="445.5" y="-52.8" font-family="Times New Roman,serif" font-size="14.00">gini = 0.0</text>
<text text-anchor="middle" x="445.5" y="-37.8" font-family="Times New Roman,serif" font-size="14.00">samples = 1</text>
<text text-anchor="middle" x="445.5" y="-22.8" font-family="Times New Roman,serif" font-size="14.00">value = [1, 0]</text>
<text text-anchor="middle" x="445.5" y="-7.8" font-family="Times New Roman,serif" font-size="14.00">class = No</text>
</g>
<!-- 9&#45;&gt;10 -->
<g id="edge10" class="edge"><title>9&#45;&gt;10</title>
<path fill="none" stroke="black" d="M480.02,-103.726C475.714,-95.1527 471.161,-86.0891 466.825,-77.4555"/>
<polygon fill="black" stroke="black" points="469.842,-75.6647 462.226,-68.2996 463.587,-78.8067 469.842,-75.6647"/>
</g>
<!-- 11 -->
<g id="node12" class="node"><title>11</title>
<polygon fill="#399de5" stroke="black" points="600,-68 509,-68 509,-0 600,-0 600,-68"/>
<text text-anchor="middle" x="554.5" y="-52.8" font-family="Times New Roman,serif" font-size="14.00">gini = 0.0</text>
<text text-anchor="middle" x="554.5" y="-37.8" font-family="Times New Roman,serif" font-size="14.00">samples = 1</text>
<text text-anchor="middle" x="554.5" y="-22.8" font-family="Times New Roman,serif" font-size="14.00">value = [0, 1]</text>
<text text-anchor="middle" x="554.5" y="-7.8" font-family="Times New Roman,serif" font-size="14.00">class = Yes</text>
</g>
<!-- 9&#45;&gt;11 -->
<g id="edge11" class="edge"><title>9&#45;&gt;11</title>
<path fill="none" stroke="black" d="M520.608,-103.726C524.836,-95.1527 529.305,-86.0891 533.563,-77.4555"/>
<polygon fill="black" stroke="black" points="536.794,-78.8164 538.078,-68.2996 530.516,-75.7203 536.794,-78.8164"/>
</g>
</g>
</svg>
